# xmcd
#
# Track frame offsets:
#	150
#	4646
#	16913
#	35076
#	50364
#	66822
#	71318
#	88535
#	101737
#	114090
#	118586
#	143970
#	157900
#	170757
#	191160
#	195656
#	216556
#	232943
#	260315
#	264811
#	280751
#	301073
#	320576
#	342702
# Disc length: 4746 seconds
# Revision: 1
# Processed by: cddbd v1.5.2PL0 Copyright (c) Steve Scherf et al.
#
# Submitted via: libkcddb 0.31
#
DISCID=50128818
DTITLE=Carnaval da Marahensidade - Carnaval da Marahensidade 2008
DYEAR=2008
DGENRE=Sertanejo
TTITLE0=Carnaval 2008
TTITLE1=Joquinha - Boscotô - Grode Que Pode
TTITLE2=Adão Camilo - A 5a Sinfonia de Dico Pintor
TTITLE3=Smith - Não Seca Pimenteira
TTITLE4=O Caroçudo no Gran Circus de Beto e seus Bonecos
TTITLE5=Carnaval 2008
TTITLE6=Começo Meio e Fim dos 500 Anos do Brasil
TTITLE7=Teresa Canto - A Lasca
TTITLE8=Tereza Canto - Pout-Pourri - Eu te Conheço Carnaval - Piroga da Olga
TTITLE9=Carnaval 2008
TTITLE10=Roberto Brandão - Rosa Reis - Cláudio Pinheiro - Fátima Passarinho - Inácio Pinheiro - Foi Você - Meu Pensamento - Goteira
TTITLE11=Rosa Reis - Pegando Fogo
TTITLE12=Fátima Passarinho - Rosinha
TTITLE13=Claudio Pinheiro - Pérolas Negras
TTITLE14=Carnaval 2008
TTITLE15=Boscotô - Jokinha - Veloso - Dada - Neto Pepery - Jorge Luis - A Máquina é um Avião
TTITLE16=Carnaval da Máquina
TTITLE17=Desejo
TTITLE18=Carnaval 2008
TTITLE19=Mestre Leonardo - Mariá
TTITLE20=Mestre Leonardo - Guimarães
TTITLE21=Dona Dadá e Zé do Pife
TTITLE22=Boscotô - Jokinha - O Enfermeiro Acudidor
TTITLE23=João Madson - Frevo na Chuva
EXTD=
EXTT0=
EXTT1=Marcos Túlio de Sá - Henrique Duailibe
EXTT2=Jailson Pereira - Vicente Melo
EXTT3=João Azevedo - Sergio Pinto
EXTT4=Jeovah França
EXTT5=
EXTT6=
EXTT7=Baiaco - Veloso
EXTT8=Gerude - Erivaldo Gomes - Oberdan Oliveira
EXTT9=
EXTT10=
EXTT11=joãozinho Ribeiro
EXTT12=Patativa
EXTT13=Luis Fernando
EXTT14=
EXTT15=Boscotô - Alvinho - Toinho - João Madson
EXTT16=Neto Pepery
EXTT17=Neto Pepery - Robson Jalvim - Boscotô - Alvinho - Bota Liza - Veloso
EXTT18=
EXTT19=Leonardo
EXTT20=Mestre Leonardo
EXTT21=Chiko Rodrigues
EXTT22=Henrique Duailibe - Marco Túlio
EXTT23=João Madson
PLAYORDER=
